<?xml version="1.0" standalone="no"?><!DOCTYPE svg PUBLIC "-//W3C//DTD SVG 1.1//EN" "http://www.w3.org/Graphics/SVG/1.1/DTD/svg11.dtd"><svg t="1653285387444" class="icon" viewBox="0 0 1024 1024" version="1.1" xmlns="http://www.w3.org/2000/svg" p-id="5762" width="512" height="512" xmlns:xlink="http://www.w3.org/1999/xlink"><path d="M512.384 970.24a113.749333 113.749333 0 0 1-74.24-26.88l-67.413333-57.685333a65.237333 65.237333 0 0 0-32.810667-11.946667H263.210667a114.474667 114.474667 0 0 1-114.346667-114.304v-72.96a65.749333 65.749333 0 0 0-11.52-32.426667l-58.026667-68.266666a117.717333 117.717333 0 0 1 0-148.096l58.026667-68.266667a65.664 65.664 0 0 0 11.52-32.426667v-72.533333a114.474667 114.474667 0 0 1 114.346667-114.346667h73.813333a67.370667 67.370667 0 0 0 32.853333-12.373333l67.413334-57.472a117.504 117.504 0 0 1 148.864 0l67.413333 57.6a67.328 67.328 0 0 0 33.28 11.946667h72.533333a114.474667 114.474667 0 0 1 114.346667 114.346666v72.533334a67.370667 67.370667 0 0 0 12.373333 32.853333l57.6 67.413333a117.077333 117.077333 0 0 1 0 148.864l-57.6 67.413334a66.901333 66.901333 0 0 0-11.946666 32.810666v72.533334a114.474667 114.474667 0 0 1-114.304 114.346666h-72.533334a70.058667 70.058667 0 0 0-33.28 12.373334l-67.413333 57.6a112.128 112.128 0 0 1-74.24 27.349333zM263.210667 214.229333a50.389333 50.389333 0 0 0-50.346667 50.346667v72.533333a125.184 125.184 0 0 1-26.88 73.813334l-58.026667 68.266666a54.101333 54.101333 0 0 0 0 65.28l57.6 67.797334a125.269333 125.269333 0 0 1 26.88 73.813333v72.96a50.432 50.432 0 0 0 50.346667 50.389333h74.24a128 128 0 0 1 74.282667 27.306667l67.797333 58.026667a53.802667 53.802667 0 0 0 65.749333 0l67.413334-57.6a127.573333 127.573333 0 0 1 74.24-27.306667h72.533333a50.389333 50.389333 0 0 0 50.346667-50.346667v-72.533333a129.962667 129.962667 0 0 1 27.349333-74.282667l58.026667-67.797333a53.76 53.76 0 0 0 0-65.706667l-57.6-67.413333a127.36 127.36 0 0 1-27.306667-74.24v-72.96a50.432 50.432 0 0 0-50.389333-50.346667h-72.533334a128.469333 128.469333 0 0 1-74.666666-27.349333l-67.84-58.026667a50.773333 50.773333 0 0 0-32.682667-11.221333 52.181333 52.181333 0 0 0-33.024 11.221333L411.733333 186.88a130.602667 130.602667 0 0 1-74.666666 27.349333z" fill="#000" p-id="5763"></path><path d="M469.333333 677.12a42.666667 42.666667 0 1 1 42.666667 42.666667 42.666667 42.666667 0 0 1-42.666667-42.666667zM480 553.386667V346.88a32.213333 32.213333 0 0 1 32-32 32.213333 32.213333 0 0 1 32 32v206.08a32 32 0 1 1-64 0.426667z" fill="#000" p-id="5764"></path></svg>
